<svg xmlns="http://www.w3.org/2000/svg" viewBox="0 0 64 64" role="img" aria-label="Favicon Bit soft">
  <defs>
    <linearGradient id="favBg" x1="0" y1="0" x2="1" y2="1">
      <stop offset="0%" stop-color="#0f9b82" />
      <stop offset="100%" stop-color="#064f43" />
    </linearGradient>
  </defs>

  <rect x="4" y="4" width="56" height="56" rx="14" fill="url(#favBg)" />

  <rect x="11" y="11" width="5" height="5" rx="1.2" fill="#b7f4e6" opacity="0.95" />
  <rect x="18" y="11" width="5" height="5" rx="1.2" fill="#b7f4e6" opacity="0.72" />

  <path
    d="M22 18V46M22 18H33C37 18 40 21 40 25C40 29 37 32 33 32H22M22 32H35C40 32 43 35 43 39C43 43 40 46 35 46H22"
    fill="none"
    stroke="#ddfff6"
    stroke-width="4.6"
    stroke-linecap="round"
    stroke-linejoin="round"
  />

  <path
    d="M46 24C43 22 39 22 36 24C33 26 33 29 36 31C38 32 40 32 42 33C45 34 45 38 42 40C39 42 35 42 32.5 40"
    fill="none"
    stroke="#8ce7d4"
    stroke-width="3.2"
    stroke-linecap="round"
    stroke-linejoin="round"
    opacity="0.95"
  />
</svg>
